<svg width="512" height="512" viewBox="0 0 512 512" fill="none" xmlns="http://www.w3.org/2000/svg"><path d="m205.2 180.183 18.535-154.904c1.765-9.709 4.413-16.329 7.944-19.86 3.53-3.53 10.15-5.295 19.859-5.295h6.62c9.709 0 16.329 1.765 19.859 5.296 3.531 3.53 6.178 10.15 7.944 19.86l14.564 154.903 144.311-64.874c15.006-7.944 26.922-3.531 35.747 13.239 2.648 5.296 3.972 11.033 3.972 17.212 0 6.178-3.972 12.357-11.916 18.535l-131.072 90.029 132.396 95.325c7.944 6.178 11.916 12.358 11.916 18.536 0 6.178-1.766 11.916-5.296 17.211l-2.648 1.324c-5.296 8.826-10.149 14.122-14.563 15.888-4.414.882-11.474-.882-21.184-5.296l-139.015-64.874-18.536 152.255c-1.766 9.71-4.413 16.33-7.944 19.86-3.53 3.529-10.15 5.296-19.859 5.296h-5.296c-9.709 0-16.329-1.767-19.859-5.296-3.531-3.53-6.179-10.15-7.944-19.86l-15.887-152.255L64.86 397.312c-5.296 2.648-11.033 3.972-17.212 3.972-6.178 0-11.915-5.296-17.211-15.888-3.53-3.529-5.296-9.267-5.296-17.211 0-7.944 3.972-15.006 11.916-21.183l129.748-90.03-129.748-94.001c-7.944-6.179-11.916-12.357-11.916-18.535 0-4.414 2.207-11.033 6.62-19.86 5.296-8.826 10.15-13.681 14.563-14.563 5.296-1.766 12.358-.442 21.184 3.972L205.2 180.183Z" fill="#000"/></svg>