<svg width="291" height="90" viewBox="0 0 291 90" fill="none" xmlns="http://www.w3.org/2000/svg"><path d="M15.688 3v35.188h42.874V3H74.25v85H58.562V52.125H15.688V88H.062V3h15.626Zm102.925 18.813c3.375 0 6.437.375 9.187 1.125 2.75.75 5.25 1.75 7.5 3a29.504 29.504 0 0 1 6.063 4.437 49.457 49.457 0 0 1 4.937 5.313l-37.562 37.687c3.041 1.958 6.375 2.938 10 2.938 3.875 0 7.333-1.021 10.375-3.063 3.083-2.042 5.333-5 6.75-8.875h15.187c-.792 3.708-2.146 7.125-4.062 10.25a31.673 31.673 0 0 1-7.125 8.125c-2.792 2.25-6 4-9.625 5.25-3.584 1.292-7.459 1.938-11.625 1.938-4.834 0-9.292-.896-13.375-2.688-4.084-1.792-7.605-4.23-10.563-7.313-2.958-3.083-5.27-6.687-6.938-10.812-1.666-4.125-2.5-8.542-2.5-13.25 0-4.667.834-9.063 2.5-13.188 1.667-4.124 3.98-7.729 6.938-10.812 2.958-3.125 6.479-5.583 10.563-7.375 4.083-1.792 8.541-2.688 13.375-2.688ZM99.487 55.687c0 1.542.126 3.021.376 4.438a23.96 23.96 0 0 0 1.187 3.938l26-26.563c-1.083-.75-2.312-1.333-3.687-1.75-1.334-.458-3-.688-5-.688-2.542 0-4.959.5-7.25 1.5a18.58 18.58 0 0 0-6.063 4.25c-1.708 1.792-3.062 3.959-4.062 6.5-1 2.5-1.5 5.292-1.5 8.376ZM158.788 88V23.75h57.875V88H201.6V37.562h-27.75V88h-15.062Zm114.237 0L256.4 59.125l-10.125 11V88h-15.188V0h15.188v53.875l22.562-30.125h18.5l-19.875 25.375L290.087 88h-17.062Z" fill="#000"/></svg>