<svg width="512" height="488" viewBox="0 0 512 488" fill="none" xmlns="http://www.w3.org/2000/svg">
<g style="mix-blend-mode:hard-light">
<path d="M445.127 281.83C504.818 263.368 516.622 238.73 504.732 194.926C491.193 199.098 474.795 194.912 472.42 187.909C470.03 180.961 480.683 168.364 494.222 164.165C476.828 122.081 452.068 108.78 392.377 127.228C369.536 134.298 346.325 147.437 326.172 162.919C335.388 139.879 341.333 114.794 341.333 91.9162C341.333 32.1558 320.384 13.8294 272.967 11.0798C272.967 24.6248 263.694 38.1697 256 38.1697C248.306 38.1697 239.019 24.6248 239.019 11.0798C191.602 13.8294 170.667 32.1558 170.667 91.9162C170.667 114.794 176.597 139.879 185.828 162.905C165.689 147.437 142.464 134.312 119.623 127.241C59.9325 108.766 35.1716 122.081 17.7636 164.179C31.2889 168.378 41.9556 180.947 39.5805 187.923C37.2053 194.899 20.8071 199.111 7.28179 194.939C-4.62221 238.73 7.21067 263.368 66.8729 281.83C89.7138 288.887 116.608 291.271 142.45 290.025C120.775 303.489 100.494 320.461 86.3716 338.963C49.4791 387.318 55.1253 413.867 91.7902 442.636C100.153 431.678 116.011 425.908 122.254 430.215C128.484 434.509 127.63 450.682 119.268 461.64C159.317 485.953 187.577 482.838 224.455 434.509C238.578 416.007 249.244 392.371 256 368.586C262.756 392.384 273.436 416.007 287.545 434.509C324.437 482.865 352.683 485.953 392.747 461.64C384.398 450.668 383.516 434.523 389.76 430.202C395.975 425.908 411.847 431.651 420.224 442.623C456.875 413.867 462.507 387.318 425.643 338.963C411.52 320.461 391.225 303.489 369.564 290.025C395.392 291.271 422.272 288.887 445.127 281.83ZM256 275.464C253.696 271.509 250.98 268.177 247.637 265.861C244.309 263.545 240.128 262.122 235.463 261.242C238.706 257.937 241.195 254.442 242.475 250.704C243.755 246.979 243.897 242.753 243.314 238.256C247.609 240.166 251.876 241.344 256 241.344C260.124 241.344 264.391 240.166 268.715 238.243C268.132 242.739 268.274 246.965 269.554 250.69C270.834 254.429 273.323 257.923 276.551 261.228C271.9 262.109 267.719 263.531 264.391 265.847C261.035 268.177 258.304 271.509 256 275.464Z" fill="#C2C2C2"/>
<path d="M238.862 253.088C237.156 260.402 229.575 265.007 221.895 263.382L138.581 245.746C130.916 244.121 126.08 236.902 127.787 229.587C129.493 222.287 137.088 217.681 144.754 219.307L228.053 236.942C235.733 238.568 240.569 245.787 238.862 253.088ZM252.743 256.041C254.45 248.726 262.044 244.121 269.71 245.746L353.01 263.382C360.69 265.007 365.511 272.227 363.819 279.541C362.112 286.828 354.517 291.447 346.852 289.822L263.552 272.186C255.872 270.588 251.036 263.328 252.743 256.041Z" fill="white"/>
<path d="M252.743 256.041C246.116 260.05 237.34 258.194 233.116 251.869L187.307 183.318C183.097 177.006 185.031 168.635 191.673 164.626C198.3 160.603 207.09 162.472 211.3 168.784L257.124 237.349C261.319 243.661 259.371 252.018 252.743 256.041ZM264.078 272.999C270.706 268.99 279.495 270.845 283.705 277.157L329.543 345.722C333.753 352.047 331.804 360.391 325.163 364.428C318.535 368.437 309.746 366.581 305.522 360.269L259.712 291.705C255.502 285.393 257.479 277.022 264.078 272.999Z" fill="white"/>
<path d="M255.829 242.821C248.164 241.195 243.328 233.962 245.035 226.662L263.552 147.329C265.244 140.028 272.825 135.423 280.505 137.048C288.185 138.673 293.006 145.906 291.3 153.207L272.796 232.54C271.104 239.827 263.495 244.446 255.829 242.821ZM252.743 256.041C260.409 257.652 265.244 264.885 263.538 272.186L245.049 351.519C243.328 358.833 235.748 363.439 228.068 361.813C220.416 360.188 215.58 352.955 217.259 345.654L235.79 266.321C237.483 259.021 245.077 254.415 252.743 256.041Z" fill="white"/>
<path d="M252.743 256.027C248.519 249.715 250.482 241.358 257.109 237.335L329.102 193.707C335.73 189.697 344.519 191.539 348.729 197.865C352.953 204.177 350.99 212.534 344.363 216.557L272.37 260.185C265.742 264.208 256.953 262.353 252.743 256.027Z" fill="white"/>
<path d="M252.743 256.027C256.953 262.353 255.004 270.71 248.377 274.733L176.384 318.375C169.756 322.384 160.981 320.542 156.743 314.203C152.533 307.904 154.482 299.534 161.109 295.511L233.102 251.869C239.744 247.859 248.533 249.729 252.743 256.027Z" fill="white"/>
<path d="M313.06 346.291C326.315 338.272 343.893 341.997 352.341 354.607C360.775 367.231 356.864 383.973 343.609 392.019C330.354 400.051 312.775 396.326 304.327 383.702C295.908 371.078 299.804 354.337 313.06 346.291ZM206.933 187.476C193.678 195.508 176.1 191.797 167.666 179.173C159.232 166.549 163.143 149.807 176.398 141.775C189.653 133.743 207.232 137.468 215.666 150.078C224.1 162.702 220.188 179.444 206.933 187.476ZM234.24 335.36C249.572 338.624 259.243 353.104 255.858 367.705C252.444 382.307 237.255 391.517 221.909 388.28C206.564 385.029 196.907 370.55 200.306 355.948C203.705 341.333 218.908 332.136 234.24 335.36ZM277.433 150.268C262.101 147.031 252.43 132.551 255.844 117.95C259.243 103.348 274.446 94.1376 289.778 97.3748C305.109 100.626 314.795 115.092 311.381 129.693C307.954 144.308 292.764 153.505 277.433 150.268ZM191.915 292.897C200.334 305.534 196.423 322.276 183.182 330.321C169.927 338.353 152.348 334.629 143.9 321.991C135.467 309.381 139.378 292.639 152.619 284.593C165.888 276.575 183.467 280.286 191.915 292.897ZM324.736 212.399C316.302 199.775 320.228 183.033 333.468 175.001C346.724 166.969 364.302 170.694 372.736 183.318C381.17 195.942 377.244 212.683 364.018 220.715C350.748 228.748 333.17 225.023 324.736 212.399ZM336.043 273.676C339.456 259.061 354.66 249.851 369.991 253.088C385.323 256.339 394.994 270.818 391.595 285.42C388.181 300.021 372.978 309.232 357.646 305.981C342.3 302.757 332.644 288.278 336.043 273.676ZM155.563 235.466C152.149 250.081 136.96 259.278 121.628 256.041C106.297 252.79 96.6258 238.31 100.025 223.709C103.424 209.107 118.628 199.897 133.959 203.134C149.305 206.398 158.962 220.864 155.563 235.466Z" fill="#868686"/>
<path d="M256 309.069C287.419 309.069 312.889 284.812 312.889 254.889C312.889 224.967 287.419 200.709 256 200.709C224.581 200.709 199.111 224.967 199.111 254.889C199.111 284.812 224.581 309.069 256 309.069Z" fill="#CDCDCD"/>
</g>
</svg>
